<svg width="562" height="45" viewBox="0 0 562 45" fill="none" xmlns="http://www.w3.org/2000/svg">
<path d="M511.109 12.7546V1.0957H561.396V12.7546H543.201V43.3741H529.363V12.7546H511.109Z" fill="white"/>
<path d="M449.184 43.3741V1.0957H469.675L491.285 30.0664V1.0957H505.123V43.3741H484.632L463.021 14.3445V43.3741H449.184Z" fill="white"/>
<path d="M427.215 43.3741V1.0957H441.052V43.3741H427.215Z" fill="white"/>
<path d="M391.548 44.5528C373.589 44.5528 361.93 35.7791 361.93 22.2359C361.93 8.81047 373.589 0.0957031 391.548 0.0957031C409.625 0.0957031 421.225 8.81047 421.225 22.2359C421.225 35.7791 409.625 44.5528 391.548 44.5528ZM376.356 22.2359C376.356 28.6542 382.303 32.8938 391.548 32.8938C400.911 32.8938 406.858 28.6542 406.858 22.2359C406.858 15.8765 400.911 11.6958 391.548 11.6958C382.245 11.6958 376.356 15.8765 376.356 22.2359Z" fill="white"/>
<path d="M307.137 43.3741V1.0957H340.229C350.769 1.0957 357.188 6.98406 357.188 16.9943C357.188 26.9456 350.769 32.8928 340.229 32.8928H320.974V43.3741H307.137ZM320.974 21.2928H336.932C340.877 21.2928 342.761 20.4684 342.761 16.9943C342.761 13.5201 340.877 12.7546 336.932 12.7546H320.974V21.2928Z" fill="white"/>
<path d="M246.004 43.3741V1.0957H259.842V16.4054H285.161V1.0957H298.999V43.3741H285.161V28.0055H259.842V43.3741H246.004Z" fill="white"/>
<path d="M212.255 44.5528C195.297 44.5528 184.168 35.7791 184.168 22.2359C184.168 8.81047 195.297 0.0957031 212.255 0.0957031C227.918 0.0957031 238.93 7.33838 240.048 18.1729H225.328C224.621 14.5222 219.557 11.6958 212.255 11.6958C203.953 11.6958 198.594 15.9354 198.594 22.2359C198.594 28.5953 203.953 32.8938 212.255 32.8938C219.557 32.8938 224.621 30.0674 225.328 26.3578H240.048C238.93 37.3101 227.918 44.5528 212.255 44.5528Z" fill="white"/>
<path d="M129.766 12.7546V1.0957H180.052V12.7546H161.857V43.3741H148.02V12.7546H129.766Z" fill="white"/>
<path d="M73.1211 43.3741L94.7902 1.0957H112.455L134.066 43.3741H119.286L115.576 35.5426H91.6105L87.842 43.3741H73.1211ZM96.3212 25.5913H110.807L103.564 10.4582L96.3212 25.5913Z" fill="white"/>
<path d="M0.0976562 43.3741V1.0957H21.7079L34.2501 27.4166L46.7334 1.0957H68.2848V43.3741H54.4472V14.2267L40.6684 43.3741H27.7729L13.9353 14.2267V43.3741H0.0976562Z" fill="white"/>
</svg>
