<svg width="267" height="14" viewBox="0 0 267 14" fill="none" xmlns="http://www.w3.org/2000/svg">
<path d="M262.136 10.2504C259.348 10.2504 257.386 9.71289 257.148 7.75039H257.948C258.186 9.16289 259.661 9.58789 262.173 9.58789C264.636 9.58789 265.611 9.16289 265.611 8.08789C265.611 6.92539 264.798 6.78789 262.286 6.60039L261.486 6.53789C258.548 6.30039 257.461 5.85039 257.461 4.48789C257.461 2.92539 259.061 2.46289 261.661 2.46289C264.248 2.46289 265.773 2.96289 266.061 4.66289H265.261C264.998 3.41289 263.636 3.12539 261.636 3.12539C259.348 3.12539 258.198 3.46289 258.198 4.47539C258.198 5.43789 259.048 5.66289 261.586 5.86289L262.461 5.93789C265.086 6.15039 266.348 6.41289 266.348 8.01289C266.348 9.57539 265.036 10.2504 262.136 10.2504Z" fill="white"/>
<path d="M244.015 10.0004L240.527 2.71289H241.34L244.49 9.36289L247.94 2.71289H248.877L252.315 9.35039L255.465 2.71289H256.29L252.802 10.0004H251.84L248.402 3.40039L244.965 10.0004H244.015Z" fill="white"/>
<path d="M234.942 10.2504C232.03 10.2504 230.18 8.73789 230.18 6.36289C230.18 3.97539 232.03 2.46289 234.88 2.46289C237.78 2.46289 239.567 3.96289 239.567 6.41289H230.967C230.992 8.37539 232.505 9.60039 234.955 9.60039C236.867 9.60039 238.255 8.90039 238.63 7.78789H239.43C239.005 9.30039 237.355 10.2504 234.942 10.2504ZM231.017 5.77539H238.767C238.555 4.10039 237.13 3.10039 234.88 3.10039C232.717 3.10039 231.28 4.08789 231.017 5.77539Z" fill="white"/>
<path d="M217.895 10.0004V1.21289H219.007L227.207 9.31289V1.21289H227.97V10.0004H226.857L218.657 1.90039V10.0004H217.895Z" fill="white"/>
<path d="M209.481 11.8875L209.856 10H209.281V9H210.456V10L209.881 11.8875H209.481Z" fill="white"/>
<path d="M203.519 10.2504C200.731 10.2504 198.769 9.71289 198.531 7.75039H199.331C199.569 9.16289 201.044 9.58789 203.556 9.58789C206.019 9.58789 206.994 9.16289 206.994 8.08789C206.994 6.92539 206.181 6.78789 203.669 6.60039L202.869 6.53789C199.931 6.30039 198.844 5.85039 198.844 4.48789C198.844 2.92539 200.444 2.46289 203.044 2.46289C205.631 2.46289 207.156 2.96289 207.444 4.66289H206.644C206.381 3.41289 205.019 3.12539 203.019 3.12539C200.731 3.12539 199.581 3.46289 199.581 4.47539C199.581 5.43789 200.431 5.66289 202.969 5.86289L203.844 5.93789C206.469 6.15039 207.731 6.41289 207.731 8.01289C207.731 9.57539 206.419 10.2504 203.519 10.2504Z" fill="white"/>
<path d="M190.91 10.0004V2.71289H191.673V4.01289C192.885 2.76289 194.048 2.46289 195.223 2.46289C196.073 2.46289 196.735 2.58789 197.248 2.72539V3.41289C196.535 3.21289 195.91 3.13789 195.198 3.13789C194.285 3.13789 193.085 3.37539 191.673 4.70039V10.0004H190.91Z" fill="white"/>
<path d="M184.212 10.2504C181.299 10.2504 179.449 8.73789 179.449 6.36289C179.449 3.97539 181.299 2.46289 184.149 2.46289C187.049 2.46289 188.837 3.96289 188.837 6.41289H180.237C180.262 8.37539 181.774 9.60039 184.224 9.60039C186.137 9.60039 187.524 8.90039 187.899 7.78789H188.699C188.274 9.30039 186.624 10.2504 184.212 10.2504ZM180.287 5.77539H188.037C187.824 4.10039 186.399 3.10039 184.149 3.10039C181.987 3.10039 180.549 4.08789 180.287 5.77539Z" fill="white"/>
<path d="M171.187 13.2504C170.662 13.2504 170.162 13.1754 169.412 13.0254V12.3879C170.237 12.5379 170.599 12.6129 171.124 12.6129C172.312 12.6129 172.637 11.8129 173.449 10.3504L173.637 10.0004H173.262L169.199 2.71289H170.024L173.862 9.60039L177.662 2.71289H178.487L174.249 10.4004C173.299 12.1379 172.749 13.2504 171.187 13.2504Z" fill="white"/>
<path d="M167.194 5.47539C167.194 3.32539 165.306 3.15039 163.956 3.15039C162.831 3.15039 161.594 3.31289 159.581 3.90039L159.419 3.20039C160.981 2.72539 162.506 2.46289 164.019 2.46289C166.719 2.46289 167.981 3.41289 167.981 5.53789V10.0004H167.194V9.01289C165.756 9.67539 164.169 10.2504 162.394 10.2504C159.869 10.2504 158.844 9.32539 158.844 7.75039C158.844 5.91289 160.481 5.17539 162.981 5.17539C164.319 5.17539 165.919 5.50039 167.194 5.87539V5.47539ZM159.644 7.71289C159.644 9.03789 160.581 9.63789 162.506 9.63789C164.094 9.63789 165.744 9.05039 167.194 8.42539V6.52539C165.981 6.17539 164.631 5.80039 162.994 5.80039C161.306 5.80039 159.644 6.16289 159.644 7.71289Z" fill="white"/>
<path d="M156.016 10V0H156.778V10H156.016Z" fill="white"/>
<path d="M144.609 10.0004V1.21289H150.547C152.672 1.21289 154.034 2.38789 154.034 4.25039C154.034 6.11289 152.672 7.28789 150.547 7.28789H145.372V10.0004H144.609ZM145.372 6.61289H150.447C152.109 6.61289 153.259 5.83789 153.259 4.25039C153.259 2.66289 152.109 1.88789 150.447 1.88789H145.372V6.61289Z" fill="white"/>
<path d="M136.196 11.8875L136.571 10H135.996V9H137.171V10L136.596 11.8875H136.196Z" fill="white"/>
<path d="M130.234 10.2504C127.446 10.2504 125.484 9.71289 125.246 7.75039H126.046C126.284 9.16289 127.759 9.58789 130.271 9.58789C132.734 9.58789 133.709 9.16289 133.709 8.08789C133.709 6.92539 132.896 6.78789 130.384 6.60039L129.584 6.53789C126.646 6.30039 125.559 5.85039 125.559 4.48789C125.559 2.92539 127.159 2.46289 129.759 2.46289C132.346 2.46289 133.871 2.96289 134.159 4.66289H133.359C133.096 3.41289 131.734 3.12539 129.734 3.12539C127.446 3.12539 126.296 3.46289 126.296 4.47539C126.296 5.43789 127.146 5.66289 129.684 5.86289L130.559 5.93789C133.184 6.15039 134.446 6.41289 134.446 8.01289C134.446 9.57539 133.134 10.2504 130.234 10.2504Z" fill="white"/>
<path d="M121.57 10.2496C119.708 10.2496 118.708 9.82461 118.708 7.63711V3.33711H116.508V2.71211H118.708V0.812109L119.458 0.474609V2.71211H123.42V3.33711H119.458V7.48711C119.458 9.34961 120.208 9.58711 121.67 9.58711C122.22 9.58711 122.633 9.52461 123.42 9.38711V10.0371C122.708 10.1746 122.12 10.2496 121.57 10.2496Z" fill="white"/>
<path d="M114.444 5.47539C114.444 3.32539 112.556 3.15039 111.206 3.15039C110.081 3.15039 108.844 3.31289 106.831 3.90039L106.669 3.20039C108.231 2.72539 109.756 2.46289 111.269 2.46289C113.969 2.46289 115.231 3.41289 115.231 5.53789V10.0004H114.444V9.01289C113.006 9.67539 111.419 10.2504 109.644 10.2504C107.119 10.2504 106.094 9.32539 106.094 7.75039C106.094 5.91289 107.731 5.17539 110.231 5.17539C111.569 5.17539 113.169 5.50039 114.444 5.87539V5.47539ZM106.894 7.71289C106.894 9.03789 107.831 9.63789 109.756 9.63789C111.344 9.63789 112.994 9.05039 114.444 8.42539V6.52539C113.231 6.17539 111.881 5.80039 110.244 5.80039C108.556 5.80039 106.894 6.16289 106.894 7.71289Z" fill="white"/>
<path d="M102.414 10.2496C100.552 10.2496 99.5516 9.82461 99.5516 7.63711V3.33711H97.3516V2.71211H99.5516V0.812109L100.302 0.474609V2.71211H104.264V3.33711H100.302V7.48711C100.302 9.34961 101.052 9.58711 102.514 9.58711C103.064 9.58711 103.477 9.52461 104.264 9.38711V10.0371C103.552 10.1746 102.964 10.2496 102.414 10.2496Z" fill="white"/>
<path d="M91.3539 10.2496C87.7664 10.2496 86.0164 9.49961 86.0039 7.03711H86.7789C86.7789 8.99961 88.2289 9.62461 91.4539 9.62461C94.0289 9.62461 95.4414 9.16211 95.4414 7.67461C95.4414 6.26211 94.4289 6.08711 91.4039 5.88711L90.8664 5.84961C87.3539 5.62461 86.3414 5.01211 86.3414 3.31211C86.3414 1.59961 87.8789 0.974609 91.0039 0.974609C94.2664 0.974609 95.8289 1.93711 95.8414 4.03711H95.0664C95.0664 2.14961 93.5164 1.59961 90.7914 1.59961C88.2289 1.59961 87.1164 2.03711 87.1164 3.31211C87.1164 4.77461 88.1789 5.02461 90.9289 5.21211L91.4664 5.24961C94.6664 5.48711 96.2164 5.68711 96.2164 7.66211C96.2164 9.66211 94.3664 10.2496 91.3539 10.2496Z" fill="white"/>
<path d="M77.8172 11.8875L78.1922 10H77.6172V9H78.7922V10L78.2172 11.8875H77.8172Z" fill="white"/>
<path d="M71.8547 10.2504C69.0672 10.2504 67.1047 9.71289 66.8672 7.75039H67.6672C67.9047 9.16289 69.3797 9.58789 71.8922 9.58789C74.3547 9.58789 75.3297 9.16289 75.3297 8.08789C75.3297 6.92539 74.5172 6.78789 72.0047 6.60039L71.2047 6.53789C68.2672 6.30039 67.1797 5.85039 67.1797 4.48789C67.1797 2.92539 68.7797 2.46289 71.3797 2.46289C73.9672 2.46289 75.4922 2.96289 75.7797 4.66289H74.9797C74.7172 3.41289 73.3547 3.12539 71.3547 3.12539C69.0672 3.12539 67.9172 3.46289 67.9172 4.47539C67.9172 5.43789 68.7672 5.66289 71.3047 5.86289L72.1797 5.93789C74.8047 6.15039 76.0672 6.41289 76.0672 8.01289C76.0672 9.57539 74.7547 10.2504 71.8547 10.2504Z" fill="white"/>
<path d="M60.6375 10.2504C57.725 10.2504 55.875 8.73789 55.875 6.36289C55.875 3.97539 57.725 2.46289 60.575 2.46289C63.475 2.46289 65.2625 3.96289 65.2625 6.41289H56.6625C56.6875 8.37539 58.2 9.60039 60.65 9.60039C62.5625 9.60039 63.95 8.90039 64.325 7.78789H65.125C64.7 9.30039 63.05 10.2504 60.6375 10.2504ZM56.7125 5.77539H64.4625C64.25 4.10039 62.825 3.10039 60.575 3.10039C58.4125 3.10039 56.975 4.08789 56.7125 5.77539Z" fill="white"/>
<path d="M44.8711 10V0H45.6336V4.8375C46.4211 3.35 47.9836 2.4625 49.9586 2.4625C52.4336 2.4625 53.8586 3.4125 53.8586 6.4625V10H53.0961V6.6125C53.0961 4 52.0086 3.125 49.7586 3.125C47.4336 3.125 45.6336 4.5625 45.6336 6.7625V10H44.8711Z" fill="white"/>
<path d="M38.2602 10.2504C35.3477 10.2504 33.4727 8.71289 33.4727 6.35039C33.4727 3.98789 35.3477 2.46289 38.2602 2.46289C40.5727 2.46289 42.3477 3.48789 42.7602 5.07539H41.9727C41.5727 3.87539 40.1227 3.10039 38.2602 3.10039C35.7977 3.10039 34.2227 4.38789 34.2227 6.35039C34.2227 8.32539 35.7977 9.61289 38.2602 9.61289C40.1227 9.61289 41.5727 8.82539 41.9727 7.63789H42.7602C42.3477 9.21289 40.5727 10.2504 38.2602 10.2504Z" fill="white"/>
<path d="M30.0742 10.2496C28.2117 10.2496 27.2117 9.82461 27.2117 7.63711V3.33711H25.0117V2.71211H27.2117V0.812109L27.9617 0.474609V2.71211H31.9242V3.33711H27.9617V7.48711C27.9617 9.34961 28.7117 9.58711 30.1742 9.58711C30.7242 9.58711 31.1367 9.52461 31.9242 9.38711V10.0371C31.2117 10.1746 30.6242 10.2496 30.0742 10.2496Z" fill="white"/>
<path d="M22.9477 5.47539C22.9477 3.32539 21.0602 3.15039 19.7102 3.15039C18.5852 3.15039 17.3477 3.31289 15.3352 3.90039L15.1727 3.20039C16.7352 2.72539 18.2602 2.46289 19.7727 2.46289C22.4727 2.46289 23.7352 3.41289 23.7352 5.53789V10.0004H22.9477V9.01289C21.5102 9.67539 19.9227 10.2504 18.1477 10.2504C15.6227 10.2504 14.5977 9.32539 14.5977 7.75039C14.5977 5.91289 16.2352 5.17539 18.7352 5.17539C20.0727 5.17539 21.6727 5.50039 22.9477 5.87539V5.47539ZM15.3977 7.71289C15.3977 9.03789 16.3352 9.63789 18.2602 9.63789C19.8477 9.63789 21.4977 9.05039 22.9477 8.42539V6.52539C21.7352 6.17539 20.3852 5.80039 18.7477 5.80039C17.0602 5.80039 15.3977 6.16289 15.3977 7.71289Z" fill="white"/>
<path d="M0.175781 10.0004V1.21289H1.22578L6.36328 9.21289L11.5008 1.21289H12.5508V10.0004H11.7883V2.08789L6.73828 10.0004H6.00078L0.938281 2.08789V10.0004H0.175781Z" fill="white"/>
</svg>
